<svg width="200" height="200" viewBox="0 0 24 24" fill="none" xmlns="http://www.w3.org/2000/svg">
  <path d="M4 4H20C21.1 4 22 4.9 22 6V18C22 19.1 21.1 20 20 20H4C2.9 20 2 19.1 2 18V6C2 4.9 2.9 4 4 4Z" fill="#FCE4EC" stroke="#F06292" stroke-width="1.5"/>
  
  <path d="M22 6L12 13L2 6" stroke="#F06292" stroke-width="1.5" stroke-linecap="round" stroke-linejoin="round"/>
  
  <path d="M12 15.5L11.1 14.63C7.9 11.72 5.8 9.82 5.8 7.5C5.8 5.62 7.28 4.14 9.16 4.14C10.22 4.14 11.24 4.63 12 5.41C12.76 4.63 13.78 4.14 15.84 4.14C16.72 4.14 18.2 5.62 18.2 7.5C18.2 9.82 16.1 11.72 12.9 14.64L12 15.5Z" fill="#E91E63"/>
</svg>